<?xml version="1.0" encoding="UTF-8"?>
<svg id="Ebene_1" data-name="Ebene 1" xmlns="http://www.w3.org/2000/svg" viewBox="0 0 384 384">
  <path d="M282.88,222.64c21.92-2.23,35.43,10.87,41.61,30.75,5.48,17.62,7.45,63.55-4.64,78.26-16.2,19.73-39.54-2.76-55.9-9.98-11.46-5.06-18.8-5.86-30.66-8.07-21.88-4.07-32.55-18.76-21.14-40.09,11.73-21.93,45.6-48.33,70.73-50.88Z"/>
  <path d="M103.95,123.48c22.66-1.6,41.69,22.06,52.37,39.35,12.42,20.11,29.72,59.85-8.42,62.71-17.63,1.32-30.42-1.1-48.44,4.23-11.82,3.5-20.63,11.06-33.74,6.62-11.37-3.85-16.42-15.44-16.65-26.72-.59-28.35,22.13-83.88,54.88-86.18Z"/>
  <path d="M114.75,43.66c34.73-5.94,30.38,58.32,2.17,60.26-28.78,1.99-25.51-56.27-2.17-60.26Z"/>
  <path d="M344.03,162.18c22.14-3.49,25.79,18.6,17.66,34.7-6.45,12.79-27.14,27.46-40.67,16.59-17.06-13.7,4.4-48.36,23.01-51.3Z"/>
  <path d="M285.94,141.27c15.45-.94,22.17,21.22,21.1,33.49-1.25,14.37-15.93,35.77-31.7,24.75-17.21-12.02-11.55-56.89,10.6-58.24Z"/>
  <path d="M216.7,170.79c13.94-13.99,32.12,5.05,36.09,18.74,9.07,31.31-20.6,49.7-37.54,20.5-6.22-10.71-7.92-29.84,1.45-39.24Z"/>
  <path d="M50.46,57.61c24.56-4.16,44.58,34.72,28.86,52.1-13.43,14.84-32.35-4.1-37.55-17.44-3.98-10.2-5.74-32.21,8.69-34.66Z"/>
  <path d="M13.27,107.95c15.17-2.54,30.7,7.35,36.75,20.98,14.82,33.38-27.24,38.65-43.38,13.17-6.8-10.73-9.87-31.39,6.63-34.15Z"/>
  <path d="M162.01,86.28c14.36-1.85,21.91,14.28,21.94,26.52.04,14.41-12.85,37.23-29.74,28.9-20.48-10.1-13.07-52.74,7.81-55.43Z"/>
  <path d="M361.84,222.59c23.57-4.02,24.61,22.81,14.01,37.25-8.44,11.51-31.1,22.85-39.53,5.71-7.88-16.04,8.99-40.15,25.52-42.97Z"/>
</svg>