<?xml version="1.0" encoding="UTF-8"?>
<svg id="Ebene_1" data-name="Ebene 1" xmlns="http://www.w3.org/2000/svg" viewBox="0 0 409.6 409.6">
  <defs>
    <style>
      .cls-1 {
        fill: #f984dd;
      }
    </style>
  </defs>
  <path class="cls-1" d="M409.6,194.34v23.8l-4.51,30.79c-16.42,77.27-78.58,139.44-155.86,155.86l-30.79,4.51h-23l-21.56-2.63c-27.22-4.31-52.88-14.62-76.25-28.93l-78.27,31.56h-6.35c-6.01-2.3-10.76-8.45-9.16-15.12l31.2-79.02C-27.64,216.33,6.57,84.68,108.45,28.43c130.32-71.96,291.08,17.26,300.32,163.99l.83,1.92ZM39.19,373.6c17.81-5.78,35.33-15.3,52.94-21.21,5.83-1.96,7.78-2.58,13.72.16,8.09,3.72,16.71,10.72,25.6,14.85,108.14,50.28,234.72-18.9,251.05-136.3C402.81,85.06,245.57-21.91,117.47,52.52,31.96,102.21,4.8,208.41,52.53,294.82c4.56,8.25,13.29,15.7,7.87,25.84l-21.21,52.94Z"/>
  <g>
    <path class="cls-1" d="M198.25,195.26c31.93-2.83,56.41,18.48,67.84,46.65,7.5,18.49,11.68,40.32-5.28,54.98-17.88,15.46-31.52,2.6-50.63,1.41-15.4-.96-22.2,3.1-35.84,5.68-23.45,4.43-39.61-16.59-37.66-38.63,2.71-30.81,28.98-67.2,61.57-70.09Z"/>
    <path class="cls-1" d="M238.75,107.96c23.6-2.61,34.23,25.57,32.9,44.95-1.24,17.98-14.4,40.31-35.31,35.8-34.39-7.42-32.75-76.87,2.41-80.75Z"/>
    <path class="cls-1" d="M164.96,107.96c24.36-2.91,34.45,26.79,32.89,46.4s-17.39,41.35-38.9,33.13c-30.87-11.79-27.51-75.53,6.01-79.53Z"/>
    <path class="cls-1" d="M110.47,169.7c33.47-3.13,45.76,58.56,12.75,65.31-35.97,7.36-49.6-61.86-12.75-65.31Z"/>
    <path class="cls-1" d="M294.7,169.7c17.78-1.53,27.35,16.15,26.14,31.92-1.46,18.93-19.77,41.73-40.2,31.54-25.54-12.74-14.07-61.03,14.07-63.46Z"/>
  </g>
</svg>